<?xml version="1.0" standalone="no"?>
<!DOCTYPE svg PUBLIC "-//W3C//DTD SVG 20010904//EN"
 "http://www.w3.org/TR/2001/REC-SVG-20010904/DTD/svg10.dtd">
<svg version="1.0" xmlns="http://www.w3.org/2000/svg"
 width="260.000000pt" height="260.000000pt" viewBox="0 0 260.000000 260.000000"
 preserveAspectRatio="xMidYMid meet">
<metadata>
Created by potrace 1.14, written by Peter Selinger 2001-2017
</metadata>
<g transform="translate(0.000000,260.000000) scale(0.100000,-0.100000)"
fill="#000000" stroke="none">
<path d="M1668 2135 c-1 -1 -30 -5 -63 -9 -78 -7 -226 -46 -345 -89 -401 -146
-738 -367 -876 -572 -191 -286 -24 -591 447 -814 296 -140 612 -208 821 -177
285 41 534 255 617 529 42 137 46 264 16 485 -45 342 -241 601 -480 637 -45 7
-133 14 -137 10z m147 -275 c135 -65 227 -291 239 -585 7 -157 -45 -294 -152
-403 -173 -175 -381 -198 -748 -81 -331 105 -598 302 -596 440 3 192 552 535
1022 638 95 21 179 18 235 -9z"/>
</g>
</svg>
